<svg width="177" height="40" viewBox="0 0 177 40" fill="none" xmlns="http://www.w3.org/2000/svg">
<path d="M172.952 32.008C171.627 32.008 170.627 31.7261 169.95 31.1623C169.302 30.5985 168.978 29.7247 168.978 28.5408C168.978 27.3286 169.302 26.4407 169.95 25.8769C170.627 25.3131 171.627 25.0312 172.952 25.0312C174.305 25.0312 175.306 25.3131 175.954 25.8769C176.631 26.4407 176.969 27.3286 176.969 28.5408C176.969 30.8523 175.63 32.008 172.952 32.008Z" fill="white"/>
<path d="M149.49 32.0497C148.25 32.0497 147.15 31.81 146.192 31.3308C145.233 30.8234 144.486 30.1046 143.951 29.1744C143.415 28.2442 143.147 27.0884 143.147 25.7072C143.147 24.495 143.373 23.4802 143.824 22.6628C144.303 21.8453 144.994 21.1828 145.896 20.6754C146.798 20.1681 147.911 19.7452 149.236 19.4069C150.561 19.0687 152.069 18.7727 153.761 18.519C154.663 18.3781 155.396 18.2512 155.959 18.1384C156.551 17.9975 156.988 17.7861 157.27 17.5042C157.552 17.1941 157.693 16.7572 157.693 16.1934C157.693 15.4041 157.411 14.7276 156.847 14.1638C156.283 13.6 155.396 13.3182 154.183 13.3182C153.366 13.3182 152.605 13.4591 151.9 13.741C151.224 14.0229 150.632 14.4457 150.124 15.0095C149.645 15.5733 149.293 16.2921 149.067 17.1659L143.697 15.5169C144.035 14.3611 144.515 13.3604 145.135 12.5148C145.783 11.6691 146.558 10.9644 147.46 10.4006C148.362 9.80864 149.391 9.37171 150.547 9.08982C151.703 8.80794 152.957 8.66699 154.31 8.66699C156.481 8.66699 158.243 9.01935 159.596 9.72408C160.977 10.4006 162.006 11.4718 162.682 12.9376C163.359 14.3752 163.697 16.2357 163.697 18.519V22.3245C163.697 23.3111 163.711 24.3118 163.739 25.3266C163.796 26.3414 163.852 27.3703 163.909 28.4133C163.993 29.4281 164.078 30.4429 164.162 31.4577H158.792C158.68 30.753 158.567 29.9496 158.454 29.0475C158.369 28.1173 158.299 27.1871 158.243 26.2568H157.481C157.087 27.328 156.523 28.3005 155.79 29.1744C155.057 30.0482 154.155 30.753 153.084 31.2886C152.041 31.796 150.843 32.0497 149.49 32.0497ZM152.069 27.6522C152.605 27.6522 153.14 27.5535 153.676 27.3562C154.24 27.1589 154.775 26.8911 155.283 26.5528C155.818 26.1864 156.298 25.7353 156.72 25.1998C157.171 24.6642 157.538 24.0581 157.82 23.3816L157.735 19.8298L158.708 20.0412C158.2 20.4077 157.608 20.7036 156.932 20.9291C156.255 21.1265 155.551 21.2815 154.818 21.3943C154.113 21.507 153.408 21.6339 152.703 21.7748C151.999 21.9158 151.365 22.099 150.801 22.3245C150.265 22.55 149.828 22.8601 149.49 23.2547C149.18 23.6212 149.025 24.1427 149.025 24.8192C149.025 25.6931 149.307 26.3837 149.871 26.8911C150.434 27.3985 151.167 27.6522 152.069 27.6522Z" fill="#FF8800"/>
<path d="M128.886 40C128.717 40 128.534 39.9859 128.336 39.9577C128.167 39.9577 127.984 39.9295 127.787 39.8731L127.279 34.6723C128.576 34.6723 129.492 34.4609 130.028 34.0381C130.591 33.6152 130.873 32.7696 130.873 31.5011V9.26004H136.962V31.6702C136.962 33.136 136.779 34.3904 136.412 35.4334C136.074 36.5046 135.567 37.3643 134.89 38.0127C134.214 38.6892 133.368 39.1825 132.353 39.4926C131.367 39.8309 130.211 40 128.886 40ZM133.918 5.91966C132.734 5.91966 131.818 5.68006 131.169 5.20084C130.549 4.69344 130.239 3.96053 130.239 3.00211C130.239 2.0155 130.549 1.2685 131.169 0.7611C131.818 0.2537 132.734 0 133.918 0C135.13 0 136.046 0.2537 136.666 0.7611C137.315 1.2685 137.639 2.0155 137.639 3.00211C137.639 3.93235 137.315 4.65116 136.666 5.15856C136.046 5.66596 135.13 5.91966 133.918 5.91966Z" fill="#FF8800"/>
<path d="M111.492 32.136C110.027 32.136 108.688 31.981 107.476 31.6709C106.292 31.3608 105.249 30.8957 104.347 30.2756C103.445 29.6272 102.698 28.8379 102.106 27.9077C101.514 26.9775 101.105 25.8922 100.879 24.6519L106.545 23.172C106.743 23.9612 107.025 24.6096 107.391 25.117C107.757 25.5962 108.166 25.9768 108.617 26.2586C109.068 26.5405 109.547 26.7379 110.055 26.8506C110.562 26.9634 111.07 27.0197 111.577 27.0197C112.733 27.0197 113.734 26.7801 114.579 26.3009C115.453 25.7935 116.144 25.117 116.651 24.2713C117.158 23.3975 117.539 22.3827 117.793 21.2269C118.046 20.043 118.173 18.8027 118.173 17.506C118.173 17.0268 118.145 16.5335 118.089 16.0261C118.061 15.4905 118.004 14.9408 117.92 14.377C117.863 13.8133 117.793 13.2777 117.708 12.7703H117.243C117.299 14.2925 117.088 15.5751 116.609 16.618C116.13 17.6328 115.481 18.4644 114.664 19.1128C113.846 19.7329 112.944 20.1839 111.958 20.4658C110.999 20.7195 110.069 20.8464 109.167 20.8464C107.701 20.8464 106.32 20.5222 105.023 19.8739C103.726 19.2255 102.669 18.2671 101.852 16.9986C101.063 15.7019 100.668 14.1374 100.668 12.3052C100.668 11.1776 100.851 10.0641 101.218 8.96477C101.584 7.83722 102.176 6.80832 102.994 5.87809C103.839 4.94786 104.939 4.21495 106.292 3.67936C107.645 3.14377 109.294 2.87598 111.239 2.87598C114.058 2.87598 116.411 3.45385 118.3 4.60959C120.217 5.76534 121.669 7.45667 122.655 9.68359C123.67 11.9105 124.177 14.5884 124.177 17.7174C124.177 20.9028 123.67 23.5666 122.655 25.709C121.64 27.8513 120.189 29.4581 118.3 30.5293C116.411 31.6004 114.142 32.136 111.492 32.136ZM111.281 16.618C112.183 16.618 113.001 16.4207 113.734 16.0261C114.495 15.6032 115.087 15.0395 115.509 14.3348C115.96 13.6018 116.186 12.7421 116.186 11.7555C116.186 10.7407 115.946 9.95138 115.467 9.38761C115.016 8.79564 114.438 8.37281 113.734 8.11911C113.029 7.86541 112.324 7.73856 111.619 7.73856C110.886 7.73856 110.21 7.85131 109.59 8.07682C108.998 8.30233 108.49 8.61241 108.068 9.00706C107.673 9.4017 107.363 9.88091 107.137 10.4447C106.912 10.9803 106.799 11.5722 106.799 12.2206C106.799 13.0944 106.996 13.8696 107.391 14.5462C107.786 15.2227 108.321 15.7442 108.998 16.1106C109.674 16.4489 110.435 16.618 111.281 16.618Z" fill="#FF8800"/>
<path d="M85.5287 32.0497C83.6964 32.0497 82.0615 31.796 80.6238 31.2886C79.2144 30.7812 78.0164 30.0482 77.0297 29.0898C76.0431 28.1314 75.282 26.9475 74.7464 25.538C74.239 24.1286 73.9854 22.5359 73.9854 20.76C73.9854 19.0123 74.225 17.4055 74.7042 15.9397C75.2116 14.4457 75.9445 13.1631 76.9029 12.0919C77.8613 10.9926 79.0312 10.1469 80.4124 9.55494C81.7937 8.96298 83.3581 8.66699 85.1059 8.66699C86.7972 8.66699 88.3053 8.94888 89.6302 9.51266C90.955 10.0482 92.0544 10.8657 92.9283 11.9651C93.8303 13.0645 94.4787 14.4175 94.8733 16.0243C95.2961 17.6029 95.4512 19.421 95.3384 21.4788L77.9177 21.648V18.3076L91.8289 18.1807L89.6725 19.8721C89.8698 18.3781 89.7711 17.1518 89.3765 16.1934C88.9818 15.235 88.404 14.5303 87.6429 14.0793C86.9099 13.6282 86.0925 13.4027 85.1904 13.4027C84.1192 13.4027 83.1749 13.6846 82.3574 14.2484C81.54 14.8122 80.9057 15.6437 80.4547 16.7431C80.0037 17.8143 79.7782 19.111 79.7782 20.6332C79.7782 23.0292 80.2997 24.791 81.3426 25.9186C82.4138 27.0461 83.8092 27.6099 85.5287 27.6099C86.318 27.6099 86.9804 27.5112 87.516 27.3139C88.0798 27.0884 88.5308 26.8065 88.8691 26.4683C89.2355 26.13 89.5174 25.7494 89.7147 25.3266C89.9402 24.9038 90.1235 24.4809 90.2644 24.0581L95.5498 25.1998C95.2961 26.2427 94.9156 27.1871 94.4082 28.0327C93.929 28.8502 93.2806 29.569 92.4632 30.1892C91.6457 30.7812 90.6591 31.2322 89.5033 31.5423C88.3758 31.8805 87.0509 32.0497 85.5287 32.0497Z" fill="white"/>
<path d="M58.363 31.4577V17.2506H54.8535V12.7685L60.7732 13.0222V12.2188C59.7866 11.9933 58.9691 11.641 58.3207 11.1618C57.7006 10.6544 57.2496 10.0483 56.9677 9.34358C56.6858 8.63886 56.5448 7.89186 56.5448 7.10257C56.5448 5.89045 56.8549 4.84746 57.4751 3.9736C58.0952 3.07156 58.9691 2.38093 60.0966 1.90172C61.2242 1.39432 62.5491 1.14062 64.0713 1.14062C65.368 1.14062 66.5378 1.30976 67.5808 1.64802C68.652 1.9581 69.5117 2.35275 70.1601 2.83196L69.7795 8.32878C69.103 7.84957 68.3419 7.45493 67.4962 7.14485C66.6506 6.83477 65.8472 6.67974 65.0861 6.67974C64.2404 6.67974 63.5357 6.90525 62.9719 7.35627C62.4363 7.80729 62.1685 8.5402 62.1685 9.555C62.1685 10.2597 62.3095 10.8235 62.5914 11.2463C62.9014 11.641 63.2679 11.937 63.6907 12.1343C64.1417 12.3034 64.5787 12.4162 65.0015 12.4725H70.0755V17.2506H64.2827V31.4577H58.363Z" fill="white"/>
<path d="M35.4489 32.0497C34.2086 32.0497 33.1093 31.81 32.1508 31.3308C31.1924 30.8234 30.4454 30.1046 29.9098 29.1744C29.3742 28.2442 29.1064 27.0884 29.1064 25.7072C29.1064 24.495 29.332 23.4802 29.783 22.6628C30.2622 21.8453 30.9528 21.1828 31.8549 20.6754C32.7569 20.1681 33.8704 19.7452 35.1952 19.4069C36.5201 19.0687 38.0282 18.7727 39.7196 18.519C40.6216 18.3781 41.3545 18.2512 41.9183 18.1384C42.5102 17.9975 42.9472 17.7861 43.2291 17.5042C43.511 17.1941 43.6519 16.7572 43.6519 16.1934C43.6519 15.4041 43.37 14.7276 42.8062 14.1638C42.2425 13.6 41.3545 13.3182 40.1424 13.3182C39.3249 13.3182 38.5638 13.4591 37.8591 13.741C37.1826 14.0229 36.5906 14.4457 36.0832 15.0095C35.604 15.5733 35.2516 16.2921 35.0261 17.1659L29.6561 15.5169C29.9944 14.3611 30.4736 13.3604 31.0938 12.5148C31.7421 11.6691 32.5173 10.9644 33.4193 10.4006C34.3214 9.80864 35.3503 9.37171 36.506 9.08982C37.6618 8.80794 38.9162 8.66699 40.2692 8.66699C42.4398 8.66699 44.2016 9.01935 45.5546 9.72408C46.9359 10.4006 47.9648 11.4718 48.6413 12.9376C49.3179 14.3752 49.6561 16.2357 49.6561 18.519V22.3245C49.6561 23.3111 49.6702 24.3118 49.6984 25.3266C49.7548 26.3414 49.8112 27.3703 49.8675 28.4133C49.9521 29.4281 50.0367 30.4429 50.1212 31.4577H44.7513C44.6385 30.753 44.5258 29.9496 44.413 29.0475C44.3284 28.1173 44.258 27.1871 44.2016 26.2568H43.4405C43.0458 27.328 42.4821 28.3005 41.7492 29.1744C41.0162 30.0482 40.1142 30.753 39.043 31.2886C38 31.796 36.802 32.0497 35.4489 32.0497ZM38.0282 27.6522C38.5638 27.6522 39.0994 27.5535 39.635 27.3562C40.1988 27.1589 40.7344 26.8911 41.2418 26.5528C41.7773 26.1864 42.2566 25.7353 42.6794 25.1998C43.1304 24.6642 43.4969 24.0581 43.7787 23.3816L43.6942 19.8298L44.6667 20.0412C44.1593 20.4077 43.5673 20.7036 42.8908 20.9291C42.2143 21.1265 41.5095 21.2815 40.7766 21.3943C40.0719 21.507 39.3672 21.6339 38.6625 21.7748C37.9578 21.9158 37.3235 22.099 36.7597 22.3245C36.2241 22.55 35.7872 22.8601 35.4489 23.2547C35.1389 23.6212 34.9838 24.1427 34.9838 24.8192C34.9838 25.6931 35.2657 26.3837 35.8295 26.8911C36.3933 27.3985 37.1262 27.6522 38.0282 27.6522Z" fill="white"/>
<path d="M12.0507 32.0499C10.2185 32.0499 8.56942 31.8667 7.10359 31.5002C5.66596 31.1619 4.42565 30.6405 3.38266 29.9357C2.36786 29.2028 1.56448 28.3008 0.972516 27.2296C0.408739 26.1302 0.0845667 24.8758 0 23.4664L5.3277 21.7328C5.38407 23.0013 5.69415 24.0584 6.25793 24.904C6.84989 25.7497 7.68147 26.3698 8.75264 26.7645C9.82382 27.1591 11.0218 27.3564 12.3467 27.3564C13.6152 27.3564 14.6864 27.2014 15.5603 26.8913C16.4341 26.5813 17.0965 26.1725 17.5476 25.6651C17.9986 25.1295 18.2241 24.5517 18.2241 23.9315C18.2241 23.1986 17.9422 22.6066 17.3784 22.1556C16.8147 21.7046 16.0395 21.324 15.0529 21.014C14.0944 20.7039 12.9951 20.4079 11.7548 20.126C10.3735 19.8159 9.00634 19.4636 7.65328 19.0689C6.3284 18.6743 5.11628 18.1669 4.01691 17.5467C2.94574 16.9266 2.08598 16.1232 1.43763 15.1366C0.817477 14.15 0.5074 12.9097 0.5074 11.4156C0.5074 9.69612 0.930233 8.21621 1.7759 6.9759C2.64975 5.7074 3.91825 4.72079 5.5814 4.01607C7.24454 3.31134 9.24595 2.95898 11.5856 2.95898C13.9535 2.95898 15.969 3.31134 17.6321 4.01607C19.3235 4.6926 20.6343 5.66512 21.5645 6.93361C22.4947 8.17392 23.0021 9.65384 23.0867 11.3734L17.5899 12.8956C17.5899 12.0217 17.4489 11.2606 17.167 10.6123C16.8851 9.96392 16.4905 9.42833 15.9831 9.0055C15.4757 8.55447 14.8414 8.21621 14.0803 7.9907C13.3474 7.76519 12.5018 7.65243 11.5433 7.65243C10.444 7.65243 9.48555 7.79337 8.66808 8.07526C7.87879 8.35715 7.27273 8.7377 6.84989 9.21691C6.45525 9.69612 6.25793 10.2599 6.25793 10.9082C6.25793 11.6693 6.56801 12.3036 7.18816 12.811C7.8365 13.2902 8.68217 13.6848 9.72516 13.9949C10.7963 14.305 11.9662 14.601 13.2347 14.8829C14.4468 15.1366 15.673 15.4607 16.9133 15.8554C18.1818 16.2218 19.3517 16.7152 20.4228 17.3353C21.5222 17.9273 22.3961 18.7447 23.0444 19.7877C23.7209 20.8025 24.0592 22.0851 24.0592 23.6355C24.0592 25.3269 23.6082 26.8068 22.7061 28.0753C21.8041 29.3438 20.451 30.3304 18.6469 31.0351C16.871 31.7116 14.6723 32.0499 12.0507 32.0499Z" fill="white"/>
</svg>
